<svg width="20" height="22" viewBox="0 0 20 22" fill="none" xmlns="http://www.w3.org/2000/svg">
<path d="M14.5 8.36927L5.5 3.19946" stroke="white" stroke-width="2" stroke-linecap="round" stroke-linejoin="round"/>
<path d="M19 14.9435V6.97462C18.9996 6.62526 18.9071 6.28213 18.7315 5.97966C18.556 5.6772 18.3037 5.42603 18 5.25135L11 1.26691C10.696 1.09205 10.3511 1 10 1C9.64893 1 9.30404 1.09205 9 1.26691L2 5.25135C1.69626 5.42603 1.44398 5.6772 1.26846 5.97966C1.09294 6.28213 1.00036 6.62526 1 6.97462V14.9435C1.00036 15.2929 1.09294 15.636 1.26846 15.9384C1.44398 16.2409 1.69626 16.4921 2 16.6668L9 20.6512C9.30404 20.8261 9.64893 20.9181 10 20.9181C10.3511 20.9181 10.696 20.8261 11 20.6512L18 16.6668C18.3037 16.4921 18.556 16.2409 18.7315 15.9384C18.9071 15.636 18.9996 15.2929 19 14.9435Z" stroke="white" stroke-width="2" stroke-linecap="round" stroke-linejoin="round"/>
<path d="M1.26953 5.93896L9.99953 10.9693L18.7295 5.93896" stroke="white" stroke-width="2" stroke-linecap="round" stroke-linejoin="round"/>
<path d="M10 21V10.9592" stroke="white" stroke-width="2" stroke-linecap="round" stroke-linejoin="round"/>
</svg>
