<svg width="20" height="18" viewBox="0 0 20 18" fill="none" xmlns="http://www.w3.org/2000/svg">
<path d="M13.2727 1.5H1V12.3332H13.2727V1.5Z" stroke="white" stroke-width="2" stroke-linecap="round" stroke-linejoin="round"/>
<path d="M13.2725 5.66675H16.5452L18.9997 8.16672V12.3333H13.2725V5.66675Z" stroke="white" stroke-width="2" stroke-linecap="round" stroke-linejoin="round"/>
<path d="M4.68119 16.5001C5.81085 16.5001 6.72663 15.5674 6.72663 14.4168C6.72663 13.2662 5.81085 12.3335 4.68119 12.3335C3.55152 12.3335 2.63574 13.2662 2.63574 14.4168C2.63574 15.5674 3.55152 16.5001 4.68119 16.5001Z" stroke="white" stroke-width="2" stroke-linecap="round" stroke-linejoin="round"/>
<path d="M15.3179 16.5001C16.4476 16.5001 17.3633 15.5674 17.3633 14.4168C17.3633 13.2662 16.4476 12.3335 15.3179 12.3335C14.1882 12.3335 13.2725 13.2662 13.2725 14.4168C13.2725 15.5674 14.1882 16.5001 15.3179 16.5001Z" stroke="white" stroke-width="2" stroke-linecap="round" stroke-linejoin="round"/>
</svg>
