<svg width="220" height="63" viewBox="0 0 220 63" fill="none" xmlns="http://www.w3.org/2000/svg">
<g clip-path="url(#clip0_3_63815)">
<path d="M216.423 12.9132V57.3341L220 60.8708L219.893 12.5645C218.59 12.9593 217.423 13.0228 216.423 12.9161V12.9132Z" fill="#FFFF00"/>
<path d="M212.644 62.7819L219.847 61.0957L216.308 57.5964L212.644 62.7819Z" fill="#FFFF00"/>
<path d="M180.88 30.4353L195.067 29.8617V20.6841L180.88 21.9668V30.4353Z" fill="#FFFF00"/>
<path d="M212.494 11.2587C212.494 11.2587 210.537 11.5469 207.401 11.9793L207.335 10.1201H207.34C207.142 4.46485 202.521 0 196.961 0C196.84 0 196.719 0 196.598 0.00576482C195.226 0.0547658 193.926 0.368949 192.744 0.902195C193.421 1.12702 194.079 1.41526 194.704 1.76692C195.327 1.60262 195.978 1.50462 196.65 1.47868C196.753 1.47579 196.857 1.47291 196.961 1.47291C201.731 1.47291 205.697 5.31228 205.868 10.1691H205.865L205.934 12.1782C204.135 12.4232 202.048 12.7057 199.786 12.9997L199.676 10.9877H199.682C199.466 7.01867 197.076 3.67507 193.747 2.07822C193.13 1.78421 192.485 1.54785 191.813 1.37779C191.009 1.17602 190.17 1.06937 189.311 1.06937C189.124 1.06937 188.936 1.07514 188.746 1.08379C183.027 1.39509 178.632 6.34419 178.946 12.1148L179.122 15.3604C174.579 15.7754 170.472 16.0493 167.517 16.0493V58.0172L212.388 62.7962L212.54 62.5656L216.233 57.3427V12.8844C213.771 12.5846 212.497 11.2587 212.497 11.2587H212.494ZM188.824 2.55958C188.985 2.55093 189.147 2.54517 189.308 2.54517C189.588 2.54517 189.864 2.55958 190.138 2.58552C190.793 2.64605 191.427 2.78153 192.035 2.98041C195.445 4.09591 198.001 7.2435 198.209 11.0713H198.206L198.321 13.1928C195.139 13.6021 191.669 14.0287 188.184 14.4236L188.057 10.7975C187.956 7.88339 189.242 5.24022 191.314 3.51942C190.703 3.36377 190.075 3.2773 189.432 3.26865C187.579 5.23734 186.48 7.92663 186.581 10.8494L186.711 14.5908C184.641 14.8214 182.578 15.0375 180.583 15.2278L180.41 12.0398C180.142 7.0792 183.912 2.82765 188.818 2.56246L188.824 2.55958ZM207.81 51.4309L181.197 49.5025V53.1776L207.81 55.6853V58.1296L171.354 54.2383V54.123H171.339V47.0035H171.354V46.5423L194.133 47.8711V44.1672L171.354 43.2996V42.8153H171.339V41.4462H171.354V41.0542L207.81 41.9276V51.4309ZM207.81 21.2953C207.81 22.2061 207.802 23.0996 207.77 23.9615V31.7901L203.933 31.8968C203.723 31.9313 203.507 31.9573 203.273 31.9659L193.329 32.2398V35.8428L207.807 35.7304V38.2179H207.767V38.2784L171.339 38.0853V36.7161H171.354V36.0128L182.379 35.9264V32.5424L171.354 32.848V32.8076H171.339V20.9177H171.354V20.2576C174.648 20.3181 181.142 19.7993 184.904 19.4102L190.412 18.8423C194.655 18.4042 202.997 17.3665 207.807 16.3663V21.2981L207.81 21.2953Z" fill="#FFFF00"/>
<path d="M67.8262 38.9414V22.7855H84.4029V25.7342H71.3398V35.7074L86.8962 34.5486V37.4973L67.8262 38.9386V38.9414ZM75.6231 42.1928H89.3549C93.2173 42.1928 96.2381 44.7553 96.2381 48.5485C96.2381 52.3418 93.2173 54.9388 89.3549 54.9388H75.6231C71.7952 54.9388 68.7745 52.3389 68.7745 48.5485C68.7745 44.7581 71.7952 42.1928 75.6231 42.1928ZM89.1445 51.9901C91.1823 51.9901 92.7273 50.6556 92.7273 48.5485C92.7273 46.4415 91.1823 45.1415 89.1445 45.1415H75.8335C73.8331 45.1415 72.2853 46.4761 72.2853 48.5485C72.2853 50.621 73.8302 51.9901 75.8335 51.9901H89.1445ZM91.779 41.3828V22.7336H95.2898V29.6514H100.207V32.6001H95.2898V41.38H91.779V41.3828Z" fill="white"/>
<path d="M0 40.9937V37.3791C4.9981 37.3964 9.94432 37.4108 14.8444 37.4281V32.6664C16.0493 32.6894 17.2512 32.7125 18.4503 32.7327V37.4396C23.2639 37.4541 28.0314 37.4714 32.7528 37.4858V40.7342C22.0793 40.8178 11.1636 40.9072 0 40.9937ZM1.71215 30.3662C6.25771 30.2999 14.7666 28.7434 14.7724 23.7972V23.7568C10.6534 23.5608 6.49695 23.3619 2.30881 23.1631V19.5745C11.9188 20.1394 21.3414 20.6928 30.5881 21.2376V24.5091C26.6018 24.3189 22.5808 24.1287 18.5253 23.9355V23.9759C18.5339 28.9279 26.7603 30.8274 31.1473 31.107V34.3728C25.884 34.0874 18.8308 32.5078 16.6517 27.723C14.4524 32.3983 7.14838 33.8136 1.71503 33.9635V30.3691L1.71215 30.3662ZM7.77098 44C13.7087 43.8962 19.5745 43.7925 25.371 43.6887C29.17 43.6484 31.1099 46.9631 31.1099 49.8081C31.1099 52.7107 29.2017 56.1551 25.371 56.4146C19.5745 56.7662 13.7087 57.1207 7.77098 57.4782C3.53384 57.8068 1.74962 53.8434 1.74962 50.9524C1.74962 48.0296 3.57419 44.0029 7.77098 43.9971V44ZM24.6273 53.1228C26.5124 53.0018 27.5962 51.3675 27.5991 49.9061C27.5991 48.4735 26.4548 47.0121 24.6273 47.041C19.3006 47.1937 13.9163 47.3494 8.46852 47.5079C6.46813 47.5079 5.45352 49.3382 5.45352 50.7679C5.45352 52.1803 6.41625 54.0856 8.46852 53.9184C13.9134 53.6503 19.3006 53.3851 24.6273 53.1228Z" fill="white"/>
<path d="M35.3555 40.2931V37.0706C45.1585 37.1023 54.9616 37.1369 64.7676 37.1686V40.1432C54.9645 40.1922 45.1614 40.2412 35.3555 40.2931ZM37.3645 55.6621V43.2966C38.4454 43.2822 39.5234 43.2677 40.6043 43.2533V52.3358C48.1505 52.0562 55.6995 51.7766 63.2457 51.497V54.4832C54.6186 54.8752 45.9916 55.2672 37.3645 55.6592V55.6621ZM58.3859 34.73C58.7088 31.6055 59.0316 28.481 59.3573 25.3536C52.036 25.0884 44.7175 24.8232 37.3962 24.558V21.3528C45.9051 21.7333 54.4111 22.1137 62.92 22.4913C62.4962 26.5815 62.0754 30.6716 61.6575 34.7618C60.5679 34.7502 59.4755 34.7387 58.3859 34.73Z" fill="white"/>
<path d="M113.867 33.9807C110.794 38.4283 105.185 40.2269 99.6191 40.4171V37.4511C103.193 37.2926 106.923 36.3962 109.563 34.0989C112.284 31.7295 113.273 28.3023 113.273 24.9732C108.777 25.1288 104.283 25.2845 99.7863 25.4401V22.4712C105.398 22.232 111.008 21.9899 116.62 21.7506V23.8202C116.588 26.2011 116.334 28.605 115.461 30.8677C118.3 30.8158 121.139 30.761 123.978 30.7092V20.6438L127.293 20.4939V45.9341C126.189 45.911 125.085 45.8879 123.978 45.8649V33.874C120.609 33.9086 117.239 33.9461 113.873 33.9807H113.867ZM104.888 51.1685C112.553 51.4452 120.22 51.7248 127.884 52.0015V55.201C119.113 54.8119 110.345 54.4228 101.573 54.0307V42.847C102.677 42.8614 103.781 42.8758 104.888 42.8931V51.1714V51.1685Z" fill="white"/>
<path d="M130.939 36.7422C134.568 36.5721 138.385 35.6065 141.071 33.1795C143.962 30.5652 144.934 26.8123 144.931 23.2468C140.255 23.5091 135.649 23.7685 131.107 24.0221V20.7564C136.785 20.3615 142.567 19.9579 148.456 19.5486V21.8805C148.401 26.8181 147.303 32.0958 143.262 35.7362C139.97 38.7022 135.39 39.8667 130.942 40.008V36.7422H130.939ZM138.537 42.2418C143.152 42.3254 147.833 42.409 152.583 42.4955C157.135 42.5186 159.619 46.5597 159.619 50.1368C159.619 53.6706 157.135 57.5734 152.583 57.1785C147.833 56.8297 143.152 56.4867 138.537 56.1495C134.47 55.8526 131.971 52.2553 131.971 48.8772C131.971 45.5249 134.485 42.1669 138.537 42.2418ZM152.37 53.613C154.74 53.8147 156.011 51.7999 156.011 49.9725C156.011 48.1335 154.719 46.061 152.37 46.0437C147.764 45.8996 143.221 45.7555 138.742 45.6171C136.626 45.5451 135.321 47.2918 135.321 49.0328C135.321 50.7968 136.601 52.6733 138.742 52.8001C143.221 53.0682 147.764 53.3391 152.37 53.6158V53.613ZM155.042 41.1725V18.191C156.238 18.1045 157.437 18.0152 158.639 17.9287V26.6711C160.331 26.6019 162.032 26.5327 163.741 26.4635V30.1674C162.032 30.2135 160.331 30.2597 158.639 30.3058V41.2157C157.435 41.2013 156.235 41.184 155.042 41.1696V41.1725Z" fill="white"/>
</g>
<defs>
<clipPath id="clip0_3_63815">
<rect width="220" height="62.802" fill="white"/>
</clipPath>
</defs>
</svg>
