<svg width="30" height="31" viewBox="0 0 30 31" fill="none" xmlns="http://www.w3.org/2000/svg">
<path d="M20 4.25H1.25V20.5H20V4.25Z" stroke="white" stroke-width="2" stroke-linecap="round" stroke-linejoin="round"/>
<path d="M20 10.5H25L28.75 14.25V20.5H20V10.5Z" stroke="white" stroke-width="2" stroke-linecap="round" stroke-linejoin="round"/>
<path d="M6.875 26.75C8.60089 26.75 10 25.3509 10 23.625C10 21.8991 8.60089 20.5 6.875 20.5C5.14911 20.5 3.75 21.8991 3.75 23.625C3.75 25.3509 5.14911 26.75 6.875 26.75Z" stroke="white" stroke-width="2" stroke-linecap="round" stroke-linejoin="round"/>
<path d="M23.125 26.75C24.8509 26.75 26.25 25.3509 26.25 23.625C26.25 21.8991 24.8509 20.5 23.125 20.5C21.3991 20.5 20 21.8991 20 23.625C20 25.3509 21.3991 26.75 23.125 26.75Z" stroke="white" stroke-width="2" stroke-linecap="round" stroke-linejoin="round"/>
</svg>
